<svg id="Layer_1" data-name="Layer 1" xmlns="http://www.w3.org/2000/svg" xmlns:xlink="http://www.w3.org/1999/xlink" viewBox="0 0 500 500"><defs><style>.cls-1{fill:none;}.cls-2{clip-path:url(#clip-path);}</style><clipPath id="clip-path"><circle class="cls-1" cx="-270" cy="266.56" r="207.01"/></clipPath></defs><g class="cls-2"><image width="1280" height="853" transform="translate(-686.99 44.93) scale(0.56)" xlink:href="../../../Assests/Links/CAB%20EAT/WhatsApp%20Image%202020-02-03%20at%2018.18.10.jpg"/></g><path d="M248.57,320.34c10.78-1.53,20.23-12.78,26.17-29.4a128,128,0,0,0-26.17-3.08Z"/><path d="M265.79,317.7c.64-.19,1.27-.37,1.9-.58s1.06-.35,1.58-.54,1.24-.43,1.85-.66,1.05-.41,1.57-.63l1.79-.75,1.54-.71q.89-.4,1.74-.84l1.51-.79c.57-.3,1.13-.61,1.69-.93s1-.57,1.48-.87l1.63-1c.48-.31,1-.62,1.44-.95s1.05-.73,1.57-1.1l1.4-1,1.52-1.19c.45-.36.9-.71,1.34-1.08s1-.85,1.48-1.29.85-.75,1.27-1.14,1-.92,1.42-1.38.82-.79,1.21-1.21l.23-.23a84.31,84.31,0,0,0-17.27-6.64,62.51,62.51,0,0,1-16.1,26.14l.62-.15Z"/><path d="M316.53,252.52H286.32a130.47,130.47,0,0,1-5.08,34.85A87.88,87.88,0,0,1,300.36,295,70.44,70.44,0,0,0,316.53,252.52Z"/><path d="M248.57,247.48h32.71a125.37,125.37,0,0,0-5-33.61,133.63,133.63,0,0,1-27.75,3.31Z"/><path d="M248.57,179.66v32.48a128.68,128.68,0,0,0,26.17-3.08C268.8,192.44,259.35,181.19,248.57,179.66Z"/><path d="M248.57,282.82a133.63,133.63,0,0,1,27.75,3.31,125.37,125.37,0,0,0,5-33.61H248.57Z"/><path d="M300.36,205a87.88,87.88,0,0,1-19.12,7.61,130.47,130.47,0,0,1,5.08,34.85h30.21A70.44,70.44,0,0,0,300.36,205Z"/><path d="M297,201.2l-.21-.24c-.4-.41-.82-.8-1.22-1.2s-.94-.93-1.42-1.38-.85-.76-1.27-1.14-1-.87-1.48-1.29-.89-.72-1.33-1.07-1-.82-1.54-1.21-.91-.67-1.38-1-1.05-.76-1.59-1.12-.95-.63-1.43-.93-1.09-.7-1.64-1l-1.47-.86c-.56-.32-1.13-.63-1.7-.94l-1.51-.78-1.76-.85-1.54-.7c-.59-.26-1.2-.5-1.8-.75s-1-.42-1.56-.62-1.23-.46-1.85-.67-1.05-.37-1.58-.54l-1.91-.58c-.52-.15-1.05-.31-1.58-.45l-.61-.15a62.48,62.48,0,0,1,16.1,26.15A84.78,84.78,0,0,0,297,201.2Z"/><path d="M175.57,247.48h30.2a130.88,130.88,0,0,1,5.09-34.85A87.68,87.68,0,0,1,191.74,205,70.38,70.38,0,0,0,175.57,247.48Z"/><path d="M243.53,320.34V287.86a128.86,128.86,0,0,0-26.18,3.08C223.3,307.56,232.75,318.81,243.53,320.34Z"/><path d="M243.53,252.52H210.81a126.18,126.18,0,0,0,5,33.61,133.72,133.72,0,0,1,27.76-3.31Z"/><path d="M243.53,179.66c-10.78,1.53-20.23,12.78-26.18,29.4a128.15,128.15,0,0,0,26.18,3.08Z"/><path d="M243.53,217.18a133.72,133.72,0,0,1-27.76-3.31,126.18,126.18,0,0,0-5,33.61h32.72Z"/><path d="M228.51,181.7l-.62.15-1.59.45c-.63.19-1.26.37-1.89.57l-1.59.55c-.62.21-1.23.43-1.84.66s-1,.41-1.57.63l-1.79.75-1.55.71c-.58.27-1.16.55-1.73.84l-1.52.79q-.84.45-1.68.93c-.5.28-1,.57-1.48.87l-1.63,1-1.44,1-1.58,1.1-1.39,1c-.52.39-1,.79-1.53,1.19s-.9.72-1.33,1.09-1,.84-1.47,1.27-.87.76-1.29,1.16-.94.91-1.41,1.37-.82.8-1.22,1.21c-.07.07-.14.16-.22.23a84.83,84.83,0,0,0,17.26,6.65A62.48,62.48,0,0,1,228.51,181.7Z"/><path d="M196.58,300.24c.47.46.93.93,1.41,1.38s.85.76,1.28,1.14,1,.87,1.48,1.29.88.72,1.33,1.07,1,.82,1.54,1.21l1.37,1,1.6,1.12,1.43.93c.54.35,1.08.69,1.64,1s1,.58,1.47.86,1.13.64,1.69.94,1,.53,1.52.78,1.16.58,1.76.85,1,.47,1.53.7,1.2.51,1.81.76,1,.42,1.56.62l1.85.67,1.58.54c.63.2,1.26.39,1.9.57s1,.31,1.58.45l.62.15a62.45,62.45,0,0,1-16.1-26.14,84.34,84.34,0,0,0-17.27,6.65,2.39,2.39,0,0,1,.22.23C195.76,299.45,196.17,299.84,196.58,300.24Z"/><path d="M191.74,295a87.68,87.68,0,0,1,19.12-7.61,130.88,130.88,0,0,1-5.09-34.85h-30.2A70.38,70.38,0,0,0,191.74,295Z"/></svg>