<svg id="Layer_1" data-name="Layer 1" xmlns="http://www.w3.org/2000/svg" viewBox="0 0 500 500"><path d="M210,270.65h74.61a4.11,4.11,0,0,0,4-3l16.52-57.81a4.12,4.12,0,0,0-4-5.27H200.47l-2.95-13.28a4.14,4.14,0,0,0-4-3.24h-25a4.13,4.13,0,0,0,0,8.26h21.74l14.91,67.11A12.38,12.38,0,0,0,210,287.17h74.61a4.13,4.13,0,0,0,0-8.26H210a4.13,4.13,0,1,1,0-8.26Z"/><path d="M205.87,299.56a12.39,12.39,0,1,0,12.39-12.39A12.41,12.41,0,0,0,205.87,299.56Z"/><path d="M264,299.56a12.39,12.39,0,1,0,12.39-12.39A12.41,12.41,0,0,0,264,299.56Z"/></svg>