<svg id="Layer_1" data-name="Layer 1" xmlns="http://www.w3.org/2000/svg" viewBox="0 0 500 500"><path d="M309.86,242.65l-9.89-33a17.52,17.52,0,0,0-16.88-12.56h-6.66v-8.81a8.8,8.8,0,0,0-8.81-8.81H232.38a8.8,8.8,0,0,0-8.81,8.81v8.81h-6.66A17.52,17.52,0,0,0,200,209.7l-9.89,33a17.64,17.64,0,0,0-10.62,16.16v35.24a8.8,8.8,0,0,0,8.81,8.81h0v8.81a8.8,8.8,0,0,0,8.81,8.81H206a8.8,8.8,0,0,0,8.81-8.81v-8.81h70.48v8.81a8.8,8.8,0,0,0,8.81,8.81h8.81a8.8,8.8,0,0,0,8.81-8.81v-8.81h0a8.8,8.8,0,0,0,8.81-8.81V258.81a17.64,17.64,0,0,0-10.62-16.16Zm-93-27.89h66.18L291,241.19H209l7.93-26.43Zm-2.15,66.08a8.81,8.81,0,1,1,8.81-8.81A8.81,8.81,0,0,1,214.76,280.84Zm70.48,0a8.81,8.81,0,1,1,8.81-8.81A8.81,8.81,0,0,1,285.24,280.84Z"/></svg>