<svg id="Layer_1" data-name="Layer 1" xmlns="http://www.w3.org/2000/svg" viewBox="0 0 500 500"><path d="M250,190.56a59.4,59.4,0,0,0-25.58,113l1.86-35.95s-3.5-1.15-4.27-1.53c-7.42-3.27-12.81-12.89-12.81-25.39,0-13.63,10.57-25.38,20.8-25.47h0c10.23.09,20.8,11.84,20.8,25.47,0,12.5-5.39,22.12-12.8,25.39l-4.3,1.57,2.08,40a58.26,58.26,0,0,0,33.1-1.34l1.84-35.62a19.07,19.07,0,0,1-11.58-8c-3.22-4.81,2.47-47.42,2.47-47.42h3.7v40H269v-40h4v40h3.66v-40h4.17v40h3.67v-40h2.84s5.68,42.6,2.46,47.41a19.08,19.08,0,0,1-11.46,8l-.16.06,1.6,30.65A59.41,59.41,0,0,0,250,190.56Z"/><path d="M217.9,234.68c.21-.87.5-1.69.51-1.71a.78.78,0,0,0-.43-.86.71.71,0,0,0-.93.2l-1,1.6a17.14,17.14,0,0,0-1.67,3.78,31.66,31.66,0,0,0-1.15,5.49,24.43,24.43,0,0,0-.08,3.18,15.1,15.1,0,0,0,.6,3.37c1.17,3.32,2.07,6.53,5.32,9.7a18.34,18.34,0,0,0,2.84,2.3l.27.19.47.3a5.86,5.86,0,0,0,1.15.47.68.68,0,0,0,.78-.33.69.69,0,0,0-.23-.82,8.31,8.31,0,0,1-.85-.93,18.44,18.44,0,0,1-1.09-1.49l-.95-1.36c-1.58-2.42-2.49-5.79-3.75-9.24a11.56,11.56,0,0,1-.52-2.54,23.54,23.54,0,0,1-.15-2.71,35.87,35.87,0,0,1,.22-5.05A19.54,19.54,0,0,1,217.9,234.68Z"/><path d="M250,179.52A70.48,70.48,0,1,0,320.48,250,70.56,70.56,0,0,0,250,179.52Zm0,135.7A65.23,65.23,0,1,1,315.23,250,65.31,65.31,0,0,1,250,315.22Z"/></svg>