<svg id="Layer_1" data-name="Layer 1" xmlns="http://www.w3.org/2000/svg" viewBox="0 0 500 500"><defs><style>.cls-1{fill:#ea6409;}.cls-2{fill:#63b138;}.cls-3{fill:none;}</style></defs><path class="cls-1" d="M87.78,391.33a27.82,27.82,0,0,0-6.08-4.63,13.9,13.9,0,0,0-6.47-1.45A8.64,8.64,0,0,0,70.1,387a5.33,5.33,0,0,0-2.51,4.58q0,4,5.47,6.35t11.43,4.63A26.16,26.16,0,0,1,94.76,410q4.29,5.13,4.29,15.06,0,12.72-7.64,19.53t-19.36,6.86a37.61,37.61,0,0,1-13.16-2.35,31.71,31.71,0,0,1-11.27-7l10.49-15a16,16,0,0,0,13.22,6.36,12,12,0,0,0,6.3-1.84,5.77,5.77,0,0,0,3-5.25q0-4.07-5.52-6.47l-5.69-2.4-2.9-1.17-3-1.23a26.45,26.45,0,0,1-10.21-7.41q-4.23-4.92-4.24-14.67A23.19,23.19,0,0,1,52.75,380a23.61,23.61,0,0,1,9.54-8.47,27.39,27.39,0,0,1,12.44-2.91,32.82,32.82,0,0,1,22.59,9.15Z"/><path class="cls-1" d="M126.49,435.12h1q6.8-.22,6.8-9.43V392.45h17.85v33.24q0,24.27-24.65,25.61h-1q-24.64-1.35-24.65-25.61V392.45h17.85v33.24Q119.69,434.9,126.49,435.12Z"/><path class="cls-1" d="M154.94,420.45a27.69,27.69,0,0,1,4.52-15.34,31,31,0,0,1,12-10.93,34.45,34.45,0,0,1,28.5-1.73,31.85,31.85,0,0,1,10.54,6.41,30.89,30.89,0,0,1,7.25,9.82,29.65,29.65,0,0,1-.05,24.26,29.84,29.84,0,0,1-7.2,9.77A31.67,31.67,0,0,1,200,449.12a36.1,36.1,0,0,1-24.71,0l-1.28-.56-1.28-.56v23.54l-17.8-.05Zm17.8.39A12.8,12.8,0,0,0,174.8,428a15.26,15.26,0,0,0,5.52,5.24,14.39,14.39,0,0,0,7.31,2,14.65,14.65,0,0,0,7.36-2,15.18,15.18,0,0,0,5.52-5.24,13,13,0,0,0,2.07-7.14,13.88,13.88,0,0,0-4.46-10.26,14.87,14.87,0,0,0-20.92,0A13.72,13.72,0,0,0,172.74,420.84Z"/><path class="cls-1" d="M252.44,407.34a7,7,0,0,0-3.62-1.06h-1q-6.8.29-6.8,9.48v33.81H223.16V415.76q0-24.37,24.65-25.6h1a28.81,28.81,0,0,1,3.62.34Z"/><path class="cls-2" d="M255.23,370.08,273,370v23.53l1.28-.55,1.28-.56a36.1,36.1,0,0,1,24.71,0,32.38,32.38,0,0,1,10.54,6.41,29.91,29.91,0,0,1,7.2,9.76,29.72,29.72,0,0,1,.06,24.27,30.92,30.92,0,0,1-7.26,9.82,31.85,31.85,0,0,1-10.54,6.41,34.45,34.45,0,0,1-28.5-1.73,31.11,31.11,0,0,1-12.05-10.93,28,28,0,0,1-4.52-15.34ZM277.49,431a14.87,14.87,0,0,0,20.92,0,13.75,13.75,0,0,0,4.46-10.26,13,13,0,0,0-2.07-7.14,15.1,15.1,0,0,0-5.52-5.24,14.7,14.7,0,0,0-14.67,0,15.25,15.25,0,0,0-5.52,5.24,13,13,0,0,0-2.06,7.14A13.72,13.72,0,0,0,277.49,431Z"/><path class="cls-2" d="M371.14,447.89c-1.19.52-2.06.88-2.62,1.06a33.91,33.91,0,0,1-12.38,2.29,34.32,34.32,0,0,1-16.12-4,31.66,31.66,0,0,1-12-10.93,29.49,29.49,0,0,1-1.9-27.84,30.29,30.29,0,0,1,7.2-9.7,31.3,31.3,0,0,1,10.48-6.31,34.44,34.44,0,0,1,12.39-2.28,35.32,35.32,0,0,1,12.38,2.23A31.33,31.33,0,0,1,379,398.81a30.47,30.47,0,0,1,7.25,9.7,28.45,28.45,0,0,1,2.62,12.16l-.06,29.06-17.68-.16Zm-27.83-34.41a13.23,13.23,0,0,0-2.07,7.19,13.68,13.68,0,0,0,4.47,10.21,15,15,0,0,0,20.91,0,13.68,13.68,0,0,0,4.47-10.21,13.23,13.23,0,0,0-2.07-7.19,15.21,15.21,0,0,0-5.52-5.25,15.18,15.18,0,0,0-14.67,0A15.21,15.21,0,0,0,343.31,413.48Z"/><path class="cls-2" d="M454,421.17l-.05,30.24v4.12a25.6,25.6,0,0,1-7.81,18.8,25.26,25.26,0,0,1-9.71,5.75,33.65,33.65,0,0,1-11.26,2H422q-12.72-.29-20.24-7.76-5.08-5.19-6.14-9.09l17-9.87a10.92,10.92,0,0,0,3.52,7.47,10.76,10.76,0,0,0,7.69,3.07,11.41,11.41,0,0,0,10.49-7l.06-.22.11-.28c.07-.26.15-.52.22-.78a5.82,5.82,0,0,0,.28-1.34v-.17l.06-.17.05-.22v-.33h.06v-5.86l-.45.22-.45.17a30.44,30.44,0,0,1-11.71,2.29,30.12,30.12,0,0,1-15.23-4.07,30.65,30.65,0,0,1-15.67-27,29.82,29.82,0,0,1,2.51-12.27,30.94,30.94,0,0,1,28.39-18.63q10.38,0,15.4,2.67Q454,399.76,454,421.17Zm-40.44,9.88a14.22,14.22,0,0,0,20.36,0,14,14,0,0,0,2.35-17.35,14.64,14.64,0,0,0-12.55-7.14,13.93,13.93,0,0,0-7.09,1.9,14.92,14.92,0,0,0-5.41,5.24,14,14,0,0,0,2.34,17.35Z"/><path class="cls-3" d="M227.3,214.51H205.6c-8.19,0-14.89,5.89-14.89,13.09s6.7,13.09,14.89,13.09h21.7c8.19,0,14.88-5.89,14.88-13.09S235.49,214.51,227.3,214.51Z"/><path class="cls-1" d="M117.46,109.78H132c8.19,0,14.88-5.89,14.88-13.09S140.21,83.6,132,83.6H117.46c-8.18,0-14.88,5.89-14.88,13.09S109.28,109.78,117.46,109.78Z"/><path class="cls-1" d="M109.86,214.51c8.19,0,14.88-5.89,14.88-13.09s-6.69-13.09-14.88-13.09H53.05c-8.18,0-14.88,5.89-14.88,13.09s6.7,13.09,14.88,13.09h56.81Z"/><path class="cls-1" d="M393.26,92.86a7.23,7.23,0,0,1-1.3-.12,7.44,7.44,0,0,1-6-8.62c2.2-12.43.33-22.67-5.53-30.43C375.2,46.82,367.1,42.24,357,40.46,330,35.68,297,52,290.91,86.71a7.44,7.44,0,1,1-14.65-2.59C284,40.38,325.5,19.78,359.57,25.8c13.69,2.42,25.31,9.14,32.7,18.92,8.33,11,11.21,25.56,8.31,42A7.46,7.46,0,0,1,393.26,92.86Z"/><path class="cls-1" d="M436.14,102A18,18,0,0,0,418,83.6H259.47l-.27,0-.3,0H172.41c-8.19,0-14.88,5.89-14.88,13.09s6.69,13.09,14.88,13.09h13.67c8.18,0,14.88,5.89,14.88,13.09S194.26,136,186.08,136H125.42c-8.19,0-14.89,5.89-14.89,13.09s6.7,13.1,14.89,13.1H216.6c8.19,0,14.88,5.89,14.88,13.09s-6.69,13.09-14.88,13.09H153.2c-8.19,0-14.89,5.89-14.89,13.09s6.7,13.09,14.89,13.09h5.72c8.19,0,14.88,5.89,14.88,13.09s-6.69,13.09-14.88,13.09H100.18c-8.19,0-14.88,5.89-14.88,13.09s6.69,13.09,14.88,13.09h76.28c8.19,0,14.89,5.89,14.89,13.09s-6.7,13.1-14.89,13.1h-15l-.14.36c-6.58,1.34-11.54,6.54-11.54,12.73,0,7.2,6.69,13.09,14.88,13.09h26.22c.11-1.33.27-2.67.51-4,4.16-23.63,26.7-42.79,50.33-42.79s39.41,19.16,35.24,42.79h42.77c4.17-23.63,26.7-42.79,50.33-42.79s39.41,19.16,35.25,42.79h17.86a19.14,19.14,0,0,0,19.07-18.4ZM227.3,240.69H205.6c-8.19,0-14.89-5.89-14.89-13.09s6.7-13.09,14.89-13.09h21.7c8.19,0,14.88,5.89,14.88,13.09S235.49,240.69,227.3,240.69ZM397.57,137.18a16.82,16.82,0,0,1-8.67,11.57c-10.44,32.11-40.57,49.06-68.9,49.06a68.52,68.52,0,0,1-11.85-1c-13.7-2.42-25.31-9.14-32.71-18.92-6-8-9.18-17.79-9.38-28.82-3.85-2.26-5.95-6.73-5-11.87,1.31-7.43,8.39-13.45,15.81-13.45s12.38,6,11.07,13.45a16.68,16.68,0,0,1-7,10.55c-.06,8.33,2.07,15.43,6.41,21.17,5.19,6.87,13.29,11.45,23.41,13.23,23.82,4.21,52.27-8,62.83-34.78a11.42,11.42,0,0,1-2.88-10.17c1.31-7.43,8.39-13.45,15.82-13.45S398.88,129.75,397.57,137.18Z"/><path class="cls-1" d="M240.31,280.47c-19.18,0-37.48,15.55-40.86,34.74s9.43,34.73,28.61,34.73,37.48-15.55,40.86-34.73S259.49,280.47,240.31,280.47Zm7.58,34.74c-1.34,7.57-8.55,13.7-16.12,13.7s-12.62-6.13-11.29-13.7S229,301.5,236.6,301.5,249.22,307.64,247.89,315.21Z"/><path class="cls-1" d="M368.65,280.47c-19.18,0-37.47,15.55-40.85,34.74s9.42,34.73,28.6,34.73,37.48-15.55,40.86-34.73S387.84,280.47,368.65,280.47Zm7.58,34.74c-1.33,7.57-8.55,13.7-16.12,13.7s-12.62-6.13-11.28-13.7S357.38,301.5,365,301.5,377.57,307.64,376.23,315.21Z"/></svg>