<svg id="Layer_1" data-name="Layer 1" xmlns="http://www.w3.org/2000/svg" viewBox="0 0 500 500"><defs><style>.cls-1{fill:#ebebeb;}.cls-2{fill:#e0e0e0;}.cls-3{fill:#fff;}.cls-4{fill:#f5f5f5;}.cls-5{fill:#fafafa;}.cls-6{fill:#263238;}.cls-7{fill:#63b138;}.cls-8{opacity:0.4;}.cls-9{fill:#ea6409;}.cls-10{fill:#455a64;}.cls-11{opacity:0.3;}</style></defs><g id="freepik--background-complete--inject-9"><rect class="cls-1" x="254.19" y="233.76" width="52.7" height="137.95"/><rect class="cls-2" x="280.54" y="233.76" width="26.35" height="137.95"/><rect class="cls-1" x="260.21" y="217.36" width="18.61" height="16.39"/><rect class="cls-2" x="274.38" y="217.36" width="4.43" height="16.39"/><rect class="cls-2" x="249.8" y="232.81" width="58.64" height="0.96"/><rect class="cls-3" x="264.59" y="240.91" width="4.46" height="9.4"/><path class="cls-2" d="M280.54,254c0,.1-5.9.18-13.18.18s-13.17-.08-13.17-.18,5.9-.18,13.17-.18S280.54,253.92,280.54,254Z"/><rect class="cls-4" x="291.18" y="240.91" width="4.46" height="9.4"/><path class="cls-1" d="M307.12,254c0,.1-5.89.18-13.17.18s-13.18-.08-13.18-.18,5.9-.18,13.18-.18S307.12,253.92,307.12,254Z"/><rect class="cls-4" x="291.18" y="259.59" width="4.46" height="9.4"/><path class="cls-1" d="M307.12,272.69c0,.09-5.89.18-13.17.18s-13.18-.09-13.18-.18,5.9-.18,13.18-.18S307.12,272.59,307.12,272.69Z"/><rect class="cls-4" x="291.18" y="278.83" width="4.46" height="9.4"/><path class="cls-1" d="M307.12,291.93c0,.1-5.89.18-13.17.18s-13.18-.08-13.18-.18,5.9-.18,13.18-.18S307.12,291.83,307.12,291.93Z"/><rect class="cls-4" x="291.18" y="298.07" width="4.46" height="9.4"/><path class="cls-1" d="M307.12,311.17c0,.1-5.89.17-13.17.17s-13.18-.07-13.18-.17,5.9-.19,13.18-.19S307.12,311.07,307.12,311.17Z"/><rect class="cls-4" x="291.18" y="316.75" width="4.46" height="9.4"/><path class="cls-1" d="M307.12,329.86c0,.1-5.89.18-13.17.18s-13.18-.08-13.18-.18,5.9-.18,13.18-.18S307.12,329.76,307.12,329.86Z"/><rect class="cls-4" x="291.18" y="335.52" width="4.46" height="9.4"/><rect class="cls-4" x="291.18" y="354.53" width="4.46" height="9.4"/><path class="cls-1" d="M307.12,348.62c0,.1-5.89.18-13.17.18s-13.18-.08-13.18-.18,5.9-.18,13.18-.18S307.12,348.52,307.12,348.62Z"/><rect class="cls-3" x="264.59" y="259.88" width="4.46" height="9.4"/><path class="cls-2" d="M280.54,273c0,.1-5.9.18-13.18.18s-13.17-.08-13.17-.18,5.9-.18,13.17-.18S280.54,272.91,280.54,273Z"/><rect class="cls-3" x="264.59" y="278.83" width="4.46" height="9.4"/><path class="cls-2" d="M280.54,291.93c0,.1-5.9.19-13.18.19s-13.17-.09-13.17-.19,5.9-.17,13.17-.17S280.54,291.84,280.54,291.93Z"/><rect class="cls-3" x="264.59" y="297.8" width="4.46" height="9.4"/><path class="cls-2" d="M280.54,310.88c0,.09-5.9.17-13.18.17s-13.17-.08-13.17-.17,5.9-.19,13.17-.19S280.54,310.79,280.54,310.88Z"/><rect class="cls-3" x="264.59" y="316.75" width="4.46" height="9.4"/><path class="cls-2" d="M280.54,329.86c0,.1-5.9.18-13.18.18s-13.17-.08-13.17-.18,5.9-.18,13.17-.18S280.54,329.76,280.54,329.86Z"/><rect class="cls-3" x="264.59" y="335.72" width="4.46" height="9.4"/><path class="cls-2" d="M280.54,348.84c0,.1-5.9.18-13.18.18s-13.17-.08-13.17-.18,5.9-.18,13.17-.18S280.54,348.72,280.54,348.84Z"/><rect class="cls-3" x="264.59" y="354.68" width="4.46" height="9.4"/><rect class="cls-4" x="67.16" y="145.73" width="59.81" height="189.57"/><rect class="cls-1" x="97.07" y="145.73" width="29.91" height="189.05"/><rect class="cls-4" x="73.99" y="127.12" width="21.12" height="18.61"/><rect class="cls-1" x="90.08" y="127.12" width="5.04" height="18.61"/><polyline class="cls-2" points="62.17 145.73 62.17 144.65 128.72 144.65 128.72 145.73"/><rect class="cls-5" x="78.96" y="153.85" width="5.06" height="10.68"/><path class="cls-2" d="M97.07,168.71c0,.11-6.7.2-15,.2s-15-.09-15-.2,6.69-.2,15-.2S97.07,168.6,97.07,168.71Z"/><rect class="cls-2" x="109.14" y="153.85" width="5.06" height="10.68"/><path class="cls-2" d="M127.23,168.71c0,.11-6.69.2-14.91.2s-15-.09-15-.2,6.7-.2,15-.2S127.23,168.6,127.23,168.71Z"/><rect class="cls-2" x="109.14" y="175.04" width="5.06" height="10.68"/><path class="cls-2" d="M127.23,189.91c0,.11-6.69.2-14.91.2s-15-.09-15-.2,6.7-.2,15-.2S127.23,189.8,127.23,189.91Z"/><rect class="cls-2" x="109.14" y="196.88" width="5.06" height="10.68"/><path class="cls-2" d="M127.23,211.74c0,.12-6.69.21-14.91.21s-15-.09-15-.21,6.7-.2,15-.2S127.23,211.63,127.23,211.74Z"/><rect class="cls-2" x="109.14" y="218.71" width="5.06" height="10.68"/><path class="cls-2" d="M127.23,233.58c0,.11-6.69.21-14.91.21s-15-.1-15-.21,6.7-.2,15-.2S127.23,233.47,127.23,233.58Z"/><rect class="cls-2" x="109.14" y="239.93" width="5.06" height="10.68"/><path class="cls-2" d="M127.23,254.79c0,.12-6.69.2-14.91.2s-15-.08-15-.2,6.7-.2,15-.2S127.23,254.68,127.23,254.79Z"/><rect class="cls-2" x="109.14" y="261.22" width="5.06" height="10.68"/><rect class="cls-2" x="109.14" y="282.8" width="5.06" height="10.68"/><path class="cls-2" d="M127.23,276.09c0,.11-6.69.2-14.91.2s-15-.09-15-.2,6.7-.21,15-.21S127.23,276,127.23,276.09Z"/><rect class="cls-5" x="78.96" y="175.37" width="5.06" height="10.68"/><path class="cls-2" d="M97.07,190.23c0,.11-6.7.2-15,.2s-15-.09-15-.2,6.69-.2,15-.2S97.07,190.12,97.07,190.23Z"/><rect class="cls-5" x="78.96" y="196.89" width="5.06" height="10.68"/><path class="cls-2" d="M97.07,211.75c0,.11-6.7.2-15,.2s-15-.09-15-.2,6.69-.2,15-.2S97.07,211.64,97.07,211.75Z"/><rect class="cls-5" x="78.96" y="218.41" width="5.06" height="10.68"/><path class="cls-2" d="M97.07,233.27c0,.12-6.7.2-15,.2s-15-.08-15-.2,6.69-.2,15-.2S97.07,233.16,97.07,233.27Z"/><rect class="cls-5" x="78.96" y="239.93" width="5.06" height="10.68"/><path class="cls-2" d="M97.07,254.79c0,.12-6.7.2-15,.2s-15-.08-15-.2,6.69-.2,15-.2S97.07,254.68,97.07,254.79Z"/><rect class="cls-5" x="78.96" y="261.45" width="5.06" height="10.68"/><path class="cls-2" d="M97.07,276.3c0,.11-6.7.2-15,.2s-15-.09-15-.2,6.69-.21,15-.21S97.07,276.2,97.07,276.3Z"/><rect class="cls-5" x="78.96" y="282.96" width="5.06" height="10.68"/><rect class="cls-1" x="119.71" y="255.33" width="87.32" height="115.18"/><rect class="cls-2" x="166.08" y="255.33" width="40.95" height="115.18"/><rect class="cls-4" x="138.01" y="270.91" width="7.85" height="19.07"/><rect class="cls-4" x="138.01" y="345.58" width="7.85" height="19.08"/><path class="cls-4" d="M166.08,297.48c0,.22-10.38.38-23.19.38s-23.18-.16-23.18-.38,10.38-.39,23.18-.39S166.08,297.27,166.08,297.48Z"/><rect class="cls-4" x="138.01" y="308.53" width="7.85" height="19.07"/><path class="cls-4" d="M166.08,335.09c0,.21-10.38.39-23.19.39s-23.18-.18-23.18-.39,10.38-.39,23.18-.39S166.08,334.88,166.08,335.09Z"/><rect class="cls-4" x="174.78" y="270.91" width="7.85" height="19.07"/><rect class="cls-4" x="191.81" y="270.91" width="7.85" height="19.07"/><rect class="cls-4" x="174.78" y="307.11" width="7.85" height="19.07"/><rect class="cls-4" x="191.81" y="307.11" width="7.85" height="19.07"/><rect class="cls-4" x="174.78" y="343.31" width="7.85" height="19.07"/><rect class="cls-4" x="191.81" y="343.31" width="7.85" height="19.07"/><rect class="cls-2" x="113.14" y="251.31" width="100.46" height="4.16"/><path class="cls-1" d="M207.64,255.85c0,.22-19.52.4-43.59.4s-43.59-.18-43.59-.4,19.51-.38,43.59-.38S207.64,255.64,207.64,255.85Z"/><polygon class="cls-1" points="117.86 370.52 29.84 370.52 29.45 231.41 117.48 231.41 117.86 370.52"/><rect class="cls-2" x="73.47" y="231.41" width="44.01" height="139.11"/><rect class="cls-1" x="39.51" y="204.02" width="31.08" height="27.39"/><rect class="cls-2" x="63.18" y="204.02" width="7.41" height="27.39"/><rect class="cls-2" x="22.13" y="229.81" width="97.93" height="1.6"/><rect class="cls-3" x="46.83" y="243.35" width="7.45" height="15.71"/><path class="cls-2" d="M73.47,265.23c0,.16-9.85.3-22,.3s-22-.14-22-.3,9.85-.3,22-.3S73.47,265.06,73.47,265.23Z"/><rect class="cls-4" x="91.23" y="243.35" width="7.45" height="15.71"/><path class="cls-1" d="M117.86,265.23c0,.16-9.85.3-22,.3s-22-.14-22-.3,9.85-.3,22-.3S117.86,265.06,117.86,265.23Z"/><rect class="cls-4" x="91.23" y="274.54" width="7.45" height="15.71"/><path class="cls-1" d="M117.86,296.42c0,.16-9.85.3-22,.3s-22-.14-22-.3,9.85-.3,22-.3S117.86,296.25,117.86,296.42Z"/><rect class="cls-4" x="91.23" y="306.68" width="7.45" height="15.71"/><path class="cls-1" d="M117.86,328.55c0,.16-9.85.3-22,.3s-22-.14-22-.3,9.85-.3,22-.3S117.86,328.39,117.86,328.55Z"/><rect class="cls-4" x="91.23" y="338.81" width="7.45" height="15.71"/><path class="cls-1" d="M117.86,360.68c0,.17-9.85.3-22,.3s-22-.13-22-.3,9.85-.31,22-.31S117.86,360.52,117.86,360.68Z"/><rect class="cls-3" x="46.83" y="275.02" width="7.45" height="15.71"/><path class="cls-2" d="M73.47,296.9c0,.16-9.85.29-22,.29s-22-.13-22-.29,9.85-.3,22-.3S73.47,296.73,73.47,296.9Z"/><rect class="cls-3" x="46.83" y="306.69" width="7.45" height="15.71"/><path class="cls-2" d="M73.47,328.57c0,.16-9.85.29-22,.29s-22-.13-22-.29,9.85-.31,22-.31S73.47,328.4,73.47,328.57Z"/><rect class="cls-3" x="46.83" y="338.36" width="7.45" height="15.71"/><path class="cls-2" d="M73.47,360.23c0,.17-9.85.3-22,.3s-22-.13-22-.3,9.85-.3,22-.3S73.47,360.07,73.47,360.23Z"/><path class="cls-1" d="M201.21,144.46c.32-2.33-3-4.24-5.42-4.44a14.2,14.2,0,0,1-3.52-.3c-2.42-.84-3.39-4-5.74-5-1.76-.75-3.79-.08-5.5.78s-3.39,1.94-5.3,2c-1.66.11-3.46-.5-4.91.3-1.09.61-1.66,1.86-2.66,2.59a6.25,6.25,0,0,1-3.45.94,9.84,9.84,0,0,0-3.57.58,2.79,2.79,0,0,0-1.78,2.86Z"/><path class="cls-5" d="M216,212.56c.32-2.32-3-4.23-5.43-4.44a13.7,13.7,0,0,1-3.51-.3c-2.41-.84-3.39-4-5.73-4.95-1.77-.75-3.79-.09-5.5.77s-3.39,2-5.31,2c-1.66.11-3.46-.5-4.91.3-1.09.61-1.66,1.85-2.65,2.59a6.31,6.31,0,0,1-3.46.94,9.91,9.91,0,0,0-3.57.58,2.82,2.82,0,0,0-1.79,2.86Z"/><path class="cls-1" d="M462.69,150.54c.32-2.33-3-4.24-5.43-4.44a13.66,13.66,0,0,1-3.51-.3c-2.41-.84-3.39-4-5.73-5-1.77-.74-3.79-.08-5.5.78s-3.39,1.94-5.31,2c-1.66.11-3.46-.51-4.92.3-1.08.6-1.64,1.85-2.64,2.59a6.3,6.3,0,0,1-3.46.93,9.92,9.92,0,0,0-3.57.59,2.81,2.81,0,0,0-1.79,2.86Z"/><path class="cls-4" d="M272.19,183.69c.59-4.25-5.42-7.75-9.92-8.14-2.15-.18-4.38.16-6.42-.56-4.4-1.53-6.17-7.24-10.47-9.05-3.22-1.35-6.93-.15-10,1.42s-6.21,3.55-9.69,3.77c-3,.2-6.33-.93-9,.56-2,1.09-3,3.39-4.83,4.74s-4.11,1.59-6.32,1.71-4.5.14-6.52,1.06-3.68,3.06-3.26,5.23Z"/><path class="cls-1" d="M310,133.47a5.17,5.17,0,0,1-.68-.16,5.44,5.44,0,0,0-1.93-.07,5.11,5.11,0,0,0-2.54,1.11,5.23,5.23,0,0,0-1.79,2.85h0l-.11.42-.17-.4a5.67,5.67,0,0,0-2.14-2.6,5.51,5.51,0,0,0-2.63-.89,7.08,7.08,0,0,0-2.58.33,2.41,2.41,0,0,1,.68-.29,5.31,5.31,0,0,1,1.94-.24,5.54,5.54,0,0,1,2.75.87,5.88,5.88,0,0,1,2.27,2.71h-.27a5.48,5.48,0,0,1,1.88-2.94,5.28,5.28,0,0,1,4.65-.93A2,2,0,0,1,310,133.47Z"/><path class="cls-1" d="M336.23,162.75a12.38,12.38,0,0,0-5.32-.53,10.59,10.59,0,0,0-5.28,2.28,10.91,10.91,0,0,0-3.73,5.92v.07l-.11.42-.16-.38a11.91,11.91,0,0,0-4.46-5.43,11.48,11.48,0,0,0-5.43-1.82,12.14,12.14,0,0,0-3.89.36c-.9.24-1.36.45-1.36.42a1.5,1.5,0,0,1,.34-.16,8.8,8.8,0,0,1,1-.36,11.62,11.62,0,0,1,9.49,1.35,11.91,11.91,0,0,1,4.59,5.5h-.28v-.07a11.1,11.1,0,0,1,3.84-6,10.89,10.89,0,0,1,9.39-2,9.49,9.49,0,0,1,1,.33A1.29,1.29,0,0,1,336.23,162.75Z"/><path class="cls-1" d="M388.81,145.87s-.28-.08-.78-.19a6.41,6.41,0,0,0-2.14-.06,5.81,5.81,0,0,0-2.88,1.26,6,6,0,0,0-2,3.22h0l-.11.42-.15-.4a6.58,6.58,0,0,0-2.43-2.94,6.3,6.3,0,0,0-3-1,6.7,6.7,0,0,0-2.14.17,5.56,5.56,0,0,1-.76.21s.06,0,.18-.1a5.37,5.37,0,0,1,.56-.21,6.14,6.14,0,0,1,2.17-.27,6.33,6.33,0,0,1,3.1,1A6.56,6.56,0,0,1,381,150h-.26a6.13,6.13,0,0,1,2.14-3.39,5.93,5.93,0,0,1,5.22-1.06,3.49,3.49,0,0,1,.57.2C388.75,145.83,388.82,145.85,388.81,145.87Z"/><path class="cls-1" d="M349.79,132.45l-.75.85a19.17,19.17,0,0,0-1.84,2.48,18.23,18.23,0,0,0-2.71,9.67v.12h-.29a15.68,15.68,0,0,0-1.76-5.24,16.46,16.46,0,0,0-5-5.6c-.6-.42-.94-.63-.93-.65a1.26,1.26,0,0,1,.26.13c.25.13.49.27.73.42a14.47,14.47,0,0,1,2.41,1.93,16,16,0,0,1,4.6,9h-.29v-.09a17.8,17.8,0,0,1,2.85-9.77,16.1,16.1,0,0,1,1.91-2.43,7.71,7.71,0,0,1,.6-.59A1.07,1.07,0,0,1,349.79,132.45Z"/></g><g id="freepik--Floor--inject-9"><path class="cls-6" d="M471.72,372.49c0,.09-100.29.17-224,.17s-224-.08-224-.17,100.27-.18,224-.18S471.72,372.39,471.72,372.49Z"/></g><g id="freepik--Car--inject-9"><path class="cls-1" d="M349.46,372.49c13.22-.87,39.87-4.39,55.22-6.46a106.54,106.54,0,0,0,21.12-4.82c6.55-2.36,12.67-6.89,15.3-13.34,1.76-4.33,1.65-9.76-1.52-13.2-3.8-4.11-10.33-3.95-15.8-2.71a15.27,15.27,0,0,1,21.58.14,15.51,15.51,0,0,1,3.29,5,14.63,14.63,0,0,1,20.59,17.43,12.77,12.77,0,0,1,12.56,2.37c3.35,3,4.4,11.2,3.39,15.56Z"/><path class="cls-1" d="M393,362.58c6.22-1.12,12.51-2.26,18.28-4.86a7.67,7.67,0,0,0,3.18-2.24,3,3,0,0,0,.14-3.65,3.67,3.67,0,0,0-3.09-1,12.64,12.64,0,0,0-6.23,2.48c-1.85,1.31-3.48,2.88-5.22,4.34a45.67,45.67,0,0,1-7.46,5"/><path class="cls-6" d="M287.69,266.17H287l-2-.06-7.53-.3-11.18-.48-6.59-.29c-1.15-.09-2.31,0-3.5,0h-3.59c-9.73,0-18.52-.44-24.88-.72l-7.54-.36-2-.11-.54,0h.54l2,.05,7.54.25c6.37.21,15.16.57,24.88.61h3.59c1.19,0,2.36-.06,3.5,0l6.6.31,11.17.55L285,266l2,.13.54,0Z"/><path class="cls-7" d="M72.88,300.33H396.43v47.26H43v-17.4A29.88,29.88,0,0,1,72.88,300.33Z"/><g class="cls-8"><path d="M72.88,300.33H396.43v47.26H43v-17.4A29.88,29.88,0,0,1,72.88,300.33Z"/></g><path class="cls-9" d="M12.8,346s12.53,13.73,35.59,10.94c0,0-9.23-51.17,39.09-54,0,0,22.14-1.94,33.55,16.27a35.15,35.15,0,0,1,5.19,17.72c.18,7.19.41,19.33-.17,22.38,0,0,159.66-6.64,187.61-3.46,0,0-12.72-39.59,22.33-52.29,6-2.17,12.88-2.41,19.18-1.52,8.59,1.21,17.8,5.14,23.73,14.24,2.56,3.91,5.71,9.59,6.61,14.17,1.53,7.86.49,15.26,0,19.11l13.21-1.28,9.54-31.59-1.36-18.81-9.81-18.55-23.26,2.76s-43-12.2-68.34-17.29-65.31-6.1-75-4.43a64.48,64.48,0,0,0-18.17,5.54c-4.8,2.07-49.07,23.24-49.07,23.24l-67.65.55s-46.21-1-75.4,33.76l3.87,15.63Z"/><path class="cls-3" d="M211.85,320.28a3.7,3.7,0,0,0-.8-.62,2,2,0,0,0-.86-.19,1.19,1.19,0,0,0-.69.23.71.71,0,0,0-.33.61c0,.35.24.64.73.84s1,.42,1.52.62a3.41,3.41,0,0,1,1.36,1,3.06,3.06,0,0,1,.57,2,3.3,3.3,0,0,1-1,2.6,3.7,3.7,0,0,1-2.57.91A5.14,5.14,0,0,1,208,328a4.19,4.19,0,0,1-1.5-.94l1.39-2a2.14,2.14,0,0,0,1.76.84,1.63,1.63,0,0,0,.84-.24.77.77,0,0,0,.39-.7c0-.36-.25-.65-.74-.86l-.75-.32-.39-.15-.39-.17a3.47,3.47,0,0,1-1.36-1,3,3,0,0,1-.56-1.95,3,3,0,0,1,.49-1.73,3.15,3.15,0,0,1,1.27-1.13,3.57,3.57,0,0,1,1.65-.38,4.26,4.26,0,0,1,1.6.31,4.37,4.37,0,0,1,1.4.9Z"/><path class="cls-3" d="M217,326.09h.14c.6,0,.9-.43.9-1.25v-4.41h2.37v4.41q0,3.23-3.27,3.4H217q-3.27-.18-3.27-3.4v-4.41h2.37v4.41C216.09,325.66,216.39,326.07,217,326.09Z"/><path class="cls-3" d="M220.77,324.15a3.75,3.75,0,0,1,.6-2,4.15,4.15,0,0,1,1.6-1.45,4.5,4.5,0,0,1,2.14-.54,4.36,4.36,0,0,1,1.65.31,4.15,4.15,0,0,1,1.4.85,4,4,0,0,1,1,1.3,3.76,3.76,0,0,1,.34,1.62,3.81,3.81,0,0,1-.34,1.61,4,4,0,0,1-1,1.29,4.11,4.11,0,0,1-1.4.85,4.78,4.78,0,0,1-3.28,0l-.17-.07-.17-.07v3.12h-2.37Zm2.37.05a1.75,1.75,0,0,0,.27.95,2,2,0,0,0,.73.69,2,2,0,0,0,2,0,2,2,0,0,0,.74-.69,1.78,1.78,0,0,0,.27-.95,1.87,1.87,0,0,0-.59-1.37,1.94,1.94,0,0,0-1.4-.57,1.91,1.91,0,0,0-1.38.57A1.82,1.82,0,0,0,223.14,324.2Z"/><path class="cls-3" d="M233.72,322.4a.94.94,0,0,0-.48-.14h-.13c-.6,0-.91.45-.91,1.26V328h-2.37v-4.49c0-2.15,1.1-3.29,3.28-3.4h.13a3.71,3.71,0,0,1,.48.05Z"/><path class="cls-3" d="M234.09,317.46h2.37v3.12l.17-.07.17-.07a4.78,4.78,0,0,1,3.28,0,4.21,4.21,0,0,1,1.4.85,4,4,0,0,1,1,1.3,4,4,0,0,1,0,3.22,4,4,0,0,1-1,1.3,4.15,4.15,0,0,1-1.4.85,4.36,4.36,0,0,1-1.65.31,4.5,4.5,0,0,1-2.14-.54,4.15,4.15,0,0,1-1.6-1.45,3.78,3.78,0,0,1-.6-2Zm3,8.09a1.91,1.91,0,0,0,1.38.57,1.94,1.94,0,0,0,1.4-.57,1.85,1.85,0,0,0,.59-1.37,1.78,1.78,0,0,0-.27-.95,2,2,0,0,0-.74-.69,1.94,1.94,0,0,0-1-.26,2,2,0,0,0-1,.26,2,2,0,0,0-.73.69,1.78,1.78,0,0,0-.27.95A1.82,1.82,0,0,0,237.05,325.55Z"/><path class="cls-3" d="M249.49,327.79l-.35.14a4.55,4.55,0,0,1-1.64.31,4.62,4.62,0,0,1-2.15-.53,4.31,4.31,0,0,1-1.6-1.45,3.91,3.91,0,0,1-.25-3.7,4,4,0,0,1,1-1.29,4.34,4.34,0,0,1,1.39-.84,4.66,4.66,0,0,1,3.29,0,4.07,4.07,0,0,1,1.39.84,4.14,4.14,0,0,1,1,1.29,3.83,3.83,0,0,1,.34,1.62V328l-2.35,0Zm-3.7-4.57a1.78,1.78,0,0,0-.27,1,1.83,1.83,0,0,0,.59,1.35,2,2,0,0,0,2.78,0,1.83,1.83,0,0,0,.59-1.35,1.78,1.78,0,0,0-.27-1,2.16,2.16,0,0,0-.74-.7,2,2,0,0,0-1.94,0A2.07,2.07,0,0,0,245.79,323.22Z"/><path class="cls-3" d="M260.49,324.24v4.57a3.39,3.39,0,0,1-1,2.49,3.54,3.54,0,0,1-1.29.77,4.74,4.74,0,0,1-1.5.26h-.42a3.74,3.74,0,0,1-2.68-1,3,3,0,0,1-.82-1.21l2.26-1.31a1.45,1.45,0,0,0,.47,1,1.41,1.41,0,0,0,1,.4,1.49,1.49,0,0,0,1.39-.93v-.07l0-.1a.58.58,0,0,0,0-.18v-.12h0V328l-.06,0-.06,0a4.07,4.07,0,0,1-1.55.3,4,4,0,0,1-2-.54,4,4,0,0,1-1.51-1.47,4,4,0,0,1-.58-2.12,4.13,4.13,0,0,1,1.24-2.94,4.11,4.11,0,0,1,2.87-1.16,4.43,4.43,0,0,1,2,.36C259.78,321.09,260.49,322.35,260.49,324.24Zm-5.37,1.31a1.88,1.88,0,0,0,2.7,0,1.84,1.84,0,0,0,.31-2.3,1.84,1.84,0,0,0-.71-.7,1.9,1.9,0,0,0-.95-.25,1.81,1.81,0,0,0-.94.25,1.93,1.93,0,0,0-.72.7,1.84,1.84,0,0,0,.31,2.3Z"/><path class="cls-10" d="M163.28,289.13s41.69,1.78,52.66,1.36,70.32-7.39,70.32-7.39l.86-17s-19.69-1.29-32.62-1.29c-10.75,0-37.16-1-37.16-1l-2.62,1.08C199.38,271.39,182.14,280,163.28,289.13Z"/><path class="cls-1" d="M30.08,313.48A26.69,26.69,0,0,0,44,311c7.72-3.46,29.7-15.3,29.7-15.3l-1.46-3s-3.93.8-8.47,2.24a99.31,99.31,0,0,0-14.29,5.87,111.77,111.77,0,0,0-10.53,6A97.09,97.09,0,0,0,30.08,313.48Z"/><path class="cls-6" d="M42,323.34c0,.09-4.3.3-9.61.45s-9.63.21-9.64.1,4.31-.29,9.62-.45S42,323.24,42,323.34Z"/><g class="cls-8"><path class="cls-3" d="M24.09,339.07l15.14,7.06s-14.85,2.95-26.44-.15Z"/></g><path class="cls-1" d="M50.13,319.69s-4.87,7.13-5.57,12.81-.81,12.81-.81,12.81H46s-1.83-17.33,7.3-25.62Z"/><g class="cls-11"><polygon points="127.2 306.31 121.91 301.28 166.74 299.69 135.66 303.66 127.2 306.31"/></g><path class="cls-6" d="M130.64,346.42a.61.61,0,0,1,0-.19,3.35,3.35,0,0,0,0-.59c0-.5,0-1.26-.11-2.22a79.61,79.61,0,0,0-.84-8.14,49.38,49.38,0,0,0-3.29-11.66,38.36,38.36,0,0,0-8.29-12.2,39.81,39.81,0,0,0-12.2-8.24l-.78-.35-.78-.29-1.54-.58c-1-.31-2-.68-3-.9s-1.93-.5-2.87-.65l-1.36-.25L94.22,300a45.18,45.18,0,0,0-8.14-.28c-1,0-1.71.15-2.21.19l-.59,0h-.19l.19,0,.57-.08c.51-.05,1.26-.19,2.22-.25a41.7,41.7,0,0,1,8.21.18l1.36.16,1.35.24c.94.15,1.89.39,2.89.63s2,.59,3,.9l1.55.57.79.3.78.34a39.62,39.62,0,0,1,12.36,8.29,38.4,38.4,0,0,1,8.33,12.31,48.77,48.77,0,0,1,3.21,11.74,72.7,72.7,0,0,1,.67,8.2c0,1,0,1.72,0,2.23v.58A1.15,1.15,0,0,1,130.64,346.42Z"/><g class="cls-8"><polygon class="cls-3" points="138.17 344 164.98 332.54 296.53 335.07 138.17 344"/></g><polygon class="cls-6" points="163.38 333.23 126.33 305.49 135.66 303.66 173.95 332.71 163.38 333.23"/><path class="cls-6" d="M175.17,357.44a1.25,1.25,0,0,1-.07-.26c0-.2-.12-.45-.2-.77-.17-.68-.4-1.69-.67-3-.6-2.57-1.44-6.22-2.46-10.64v-.08c.92-3.06,2-6.52,3.11-10.25v.08c-.44-3.12-.91-6.48-1.4-10-.68-4.91-1.29-9.57-1.66-13.85l-.06-.8a5.47,5.47,0,0,1,0-.81,8.13,8.13,0,0,1,.33-1.54,20.34,20.34,0,0,1,1.1-2.76,48.82,48.82,0,0,1,2.59-4.63c1.73-2.76,3.27-4.87,4.36-6.33.54-.72,1-1.28,1.27-1.65l.34-.42c.09-.11.12-.14.13-.13a.75.75,0,0,1-.09.15l-.32.44L180.25,292c-1.05,1.48-2.57,3.62-4.25,6.38a49.47,49.47,0,0,0-2.55,4.63,19.78,19.78,0,0,0-1.06,2.71,6.77,6.77,0,0,0-.28,3c.39,4.26,1,8.92,1.68,13.82.49,3.49,1,6.85,1.36,10v.06h0L172,342.82v-.08c1,4.43,1.77,8.09,2.34,10.67l.62,3c.07.32.12.57.16.78A.88.88,0,0,1,175.17,357.44Z"/><path class="cls-6" d="M176.17,289.64,228,264.32l13.42.46s-33.46,8-39.76,25.65Z"/><path class="cls-6" d="M328.18,274.21l-5.1,5.69-36.82,3.22.86-17S322.49,271.41,328.18,274.21Z"/><path class="cls-10" d="M176.13,349.52l.45,0,1.32-.08,5.09-.27,18.7-.92,61.7-2.93,8.92-.43a20.09,20.09,0,0,0,8.17-2.45c5-2.71,8.82-6.81,11.95-10.95a59.71,59.71,0,0,0,7.41-12.78,40.56,40.56,0,0,0,3.05-12.47,33.79,33.79,0,0,0-.08-5.6,34.41,34.41,0,0,0-.88-4.93,29,29,0,0,0-3.08-7.39,26.65,26.65,0,0,0-3-4.07c-.4-.43-.71-.73-.92-.95l-.31-.33a3.53,3.53,0,0,1,.33.3c.22.21.55.51.95.93a25.89,25.89,0,0,1,3.09,4.06,29.53,29.53,0,0,1,3.15,7.41,36.38,36.38,0,0,1,.92,5,34.5,34.5,0,0,1,.1,5.66,40.24,40.24,0,0,1-3,12.55,59.1,59.1,0,0,1-7.41,12.88,39.58,39.58,0,0,1-12,11.06,20.47,20.47,0,0,1-8.31,2.5l-8.94.42-61.7,2.83-18.71.82-5.09.2-1.32,0Z"/><path class="cls-6" d="M326.12,295.34a11.06,11.06,0,0,0-.36-1.82,7.07,7.07,0,0,0-3.16-3.77,9.22,9.22,0,0,0-7.17-.86,8.11,8.11,0,0,0-3.69,2.24,6,6,0,0,0,0,8.42,8,8,0,0,0,3.69,2.23,9.13,9.13,0,0,0,7.17-.86,7,7,0,0,0,3.16-3.77,11.15,11.15,0,0,0,.36-1.81,3.84,3.84,0,0,1,0,.48,3.81,3.81,0,0,1-.07.59,3,3,0,0,1-.17.78,7.07,7.07,0,0,1-3.15,3.95,9.45,9.45,0,0,1-7.4,1,8.4,8.4,0,0,1-3.85-2.32,6.33,6.33,0,0,1,0-8.89,8.3,8.3,0,0,1,3.85-2.31,9.36,9.36,0,0,1,7.4,1,7,7,0,0,1,3.15,3.94,3.51,3.51,0,0,1,.17.78,3.06,3.06,0,0,1,.07.59A4,4,0,0,1,326.12,295.34Z"/><path class="cls-6" d="M374.51,282h-.7l-2,0-7.46.14c-6.3.12-15,.31-24.63.68s-18.3.79-24.61,1.26c-3.14.25-5.69.44-7.46.63l-2,.19-.53,0h0l.52-.07,2-.26c1.75-.23,4.29-.46,7.46-.75,6.29-.53,15-1,24.62-1.35s18.3-.5,24.63-.56c3.16,0,5.71,0,7.46,0h2.74Z"/><polygon class="cls-1" points="377.68 281.62 399.99 284.77 397.09 279.31 377.68 281.62"/><path class="cls-6" d="M395,283.76a1.85,1.85,0,0,1-.12.33l-.41,1c-.36.82-.91,2-1.62,3.39a120.57,120.57,0,0,1-6.17,10.84,119.33,119.33,0,0,1-7.29,10.14c-1,1.25-1.83,2.24-2.43,2.9l-.68.77a1.24,1.24,0,0,1-.26.25l.21-.3.63-.8c.56-.68,1.35-1.71,2.34-3,2-2.52,4.56-6.11,7.18-10.17s4.75-8,6.26-10.79c.74-1.41,1.35-2.56,1.71-3.39l.47-.91A1.08,1.08,0,0,1,395,283.76Z"/><path class="cls-6" d="M390.64,344.34a.74.74,0,0,1,0-.21V341a44.75,44.75,0,0,0-1.36-8.91,64.43,64.43,0,0,0-4.71-12.51,62.76,62.76,0,0,0-3.85-6.89,25.42,25.42,0,0,0-5.63-6.25,27.33,27.33,0,0,0-7.46-3.93,51.24,51.24,0,0,0-7.62-2,54.9,54.9,0,0,0-13.3-.83,56.11,56.11,0,0,0-8.93,1.24l-1.36.32-1,.26-.63.15a.46.46,0,0,1-.21,0l.21-.07.61-.19,1-.29,1.36-.35a52.13,52.13,0,0,1,9-1.36,53.65,53.65,0,0,1,13.39.79,52.45,52.45,0,0,1,7.69,2,27.36,27.36,0,0,1,7.54,4,25.88,25.88,0,0,1,5.7,6.34,61.9,61.9,0,0,1,3.86,6.94,62.85,62.85,0,0,1,4.66,12.59,43.13,43.13,0,0,1,1.22,9c0,1.07,0,1.91,0,2.47a3,3,0,0,1,0,.64A.78.78,0,0,1,390.64,344.34Z"/><path class="cls-6" d="M408.32,313.22a6,6,0,0,1-.9.31c-.58.18-1.43.41-2.49.67a75.46,75.46,0,0,1-16.86,2.14h-2.58a5.86,5.86,0,0,1-.94-.07,3.69,3.69,0,0,1,.94-.06l2.58-.09c2.17-.08,5.16-.28,8.45-.68s6.24-1,8.36-1.44l2.51-.56A5.73,5.73,0,0,1,408.32,313.22Z"/><path class="cls-6" d="M152.63,314a2.3,2.3,0,0,0,.43-.06l1.27-.11,4.89-.4,18-1.41c15.17-1.16,36.14-2.71,59.33-4.15,11.6-.71,22.65-1.31,32.7-1.78a251.86,251.86,0,0,1,26.74-.19,109.53,109.53,0,0,1,17.86,2.4c2.08.5,3.68.9,4.75,1.24l1.22.37.41.14a1.25,1.25,0,0,1-.42-.11l-1.23-.32c-1.08-.32-2.71-.68-4.75-1.19A113.08,113.08,0,0,0,296,306.13a261.86,261.86,0,0,0-26.72.27c-10.05.5-21.1,1.09-32.69,1.8-23.18,1.42-44.15,2.95-59.33,4.07l-18,1.32-4.89.34-1.27.08Z"/><circle class="cls-6" cx="348.85" cy="339.07" r="33.41" transform="translate(-37.58 634.59) rotate(-81.59)"/><path class="cls-6" d="M315.44,338.51v.08a33.41,33.41,0,1,0,66.81,1v-.09Z"/><path class="cls-5" d="M325.39,338.74a23.45,23.45,0,1,0,23.79-23.12,23.45,23.45,0,0,0-23.79,23.12Z"/><path class="cls-2" d="M349.18,315.62a23.45,23.45,0,0,0-23.79,23.1v0l46.91.67a23.46,23.46,0,0,0-23.11-23.79Z"/><path class="cls-6" d="M334.56,338.87a14.29,14.29,0,1,0,14.49-14.07h0a14.27,14.27,0,0,0-14.49,14.06Z"/><circle class="cls-6" cx="87.6" cy="339.08" r="33.41" transform="translate(-2.25 0.59) rotate(-0.38)"/><path class="cls-6" d="M54.18,338.51v.08a33.41,33.41,0,0,0,66.81,1v-.09Z"/><path class="cls-5" d="M64.13,338.74a23.45,23.45,0,1,0,23.79-23.12,23.45,23.45,0,0,0-23.79,23.12Z"/><path class="cls-2" d="M87.92,315.62a23.45,23.45,0,0,0-23.79,23.11h0l46.9.67a23.44,23.44,0,0,0-23.09-23.79Z"/><path class="cls-6" d="M73.3,338.87A14.28,14.28,0,1,0,87.79,324.8,14.27,14.27,0,0,0,73.3,338.87Z"/><path class="cls-6" d="M307.22,281.29a8.68,8.68,0,0,0-1.44.06c-.95.07-2.34.19-4.14.36-3.59.34-8.82.87-15.22,1.54l-22.55,2.44-13.31,1.52-7,.86c-2.37.33-4.79.68-7.24.9-4.91.51-9.71.88-14.34,1.21l-6.83.45-1.66.1h-4.9c-8.54,0-16.23-.17-22.69-.45s-11.66-.59-15.27-.84l-4.15-.29-1.08-.09-.37,0h.38l1.08.05,4.14.23c3.61.2,8.82.5,15.28.73s14.14.37,22.68.36h4.88l1.66-.09,6.86-.44c4.63-.33,9.43-.71,14.32-1.22,2.46-.25,4.86-.57,7.24-.9s4.75-.58,7-.85l13.31-1.49c8.49-.93,16.13-1.73,22.56-2.38s11.63-1.13,15.23-1.43A35.05,35.05,0,0,1,307.22,281.29Z"/><path class="cls-9" d="M199.75,294.2s5.55-10.74,9.49-12.59c0,0,10.49-1.11,12.09-.74s2.1,2.84,2.1,4.44.24,4.45-1,5.43-.24.87-2.59,1.48-7.38-.33-7.38-.33l.12,4.56s-5.56,2.85-9.14,2A4.66,4.66,0,0,1,199.75,294.2Z"/><path class="cls-6" d="M212.64,296.43a1.54,1.54,0,0,1,0-.31,7.66,7.66,0,0,0,0-.89c0-.82-.08-2-.14-3.39v-.12h.12a39.56,39.56,0,0,0,4.19.5,15,15,0,0,0,2.51-.06,7.41,7.41,0,0,0,1.3-.3c.42-.14.92-.21,1.16-.57a4.4,4.4,0,0,1,.52-.54,2.28,2.28,0,0,0,.49-.49,3.17,3.17,0,0,0,.51-1.36,16.27,16.27,0,0,0,.12-3.12,8.54,8.54,0,0,0-.47-3.21,2.88,2.88,0,0,0-.92-1.31,2.51,2.51,0,0,0-1.56-.34c-2,0-3.9.17-5.75.31s-3.63.31-5.3.48h0a9.78,9.78,0,0,0-2.56,2.1,25.91,25.91,0,0,0-1.93,2.37c-1.15,1.54-2,3-2.8,4.17s-1.3,2.14-1.68,2.8l-.43.76c-.05.08-.1.17-.16.25a1,1,0,0,1,.11-.28l.4-.78c.34-.67.88-1.64,1.59-2.86s1.61-2.65,2.75-4.23a29.79,29.79,0,0,1,1.93-2.4,9.81,9.81,0,0,1,2.65-2.19h0c1.68-.17,3.45-.35,5.3-.51s3.79-.31,5.79-.31a5.49,5.49,0,0,1,.91,0,1.81,1.81,0,0,1,.86.35,3.21,3.21,0,0,1,1,1.47,8.74,8.74,0,0,1,.48,3.33,16.24,16.24,0,0,1-.14,3.19,3.53,3.53,0,0,1-.57,1.47,2.56,2.56,0,0,1-.55.54,5.67,5.67,0,0,0-.48.5,8,8,0,0,1-5.22,1,35.16,35.16,0,0,1-4.21-.56l.11-.11c0,1.42,0,2.55,0,3.39v.89A1.83,1.83,0,0,1,212.64,296.43Z"/><path class="cls-9" d="M141.27,309.3a23,23,0,0,1-4.06.18,23.08,23.08,0,0,1-4.07-.18,23.08,23.08,0,0,1,4.07-.18A23,23,0,0,1,141.27,309.3Z"/><path class="cls-9" d="M147.1,313.59a22,22,0,0,1-4.06.17,22.15,22.15,0,0,1-4.07-.17,23.08,23.08,0,0,1,4.07-.18A22.92,22.92,0,0,1,147.1,313.59Z"/><path class="cls-9" d="M152.9,317.81a23.08,23.08,0,0,1-4.07.18,23,23,0,0,1-4.06-.18,24,24,0,0,1,4.06-.17A24.07,24.07,0,0,1,152.9,317.81Z"/><path class="cls-9" d="M158.7,322.07a25.16,25.16,0,0,1-4.07.18,25.16,25.16,0,0,1-4.07-.18,23.08,23.08,0,0,1,4.07-.18A23.08,23.08,0,0,1,158.7,322.07Z"/><path class="cls-9" d="M164.5,326.33a24.07,24.07,0,0,1-4.07.17,24.07,24.07,0,0,1-4.07-.17,22.16,22.16,0,0,1,4.07-.19A22.16,22.16,0,0,1,164.5,326.33Z"/><path class="cls-9" d="M170.3,330.58a23.08,23.08,0,0,1-4.07.18,23.08,23.08,0,0,1-4.07-.18,23.08,23.08,0,0,1,4.07-.18A24.07,24.07,0,0,1,170.3,330.58Z"/><path class="cls-3" d="M219.92,282.36a36.19,36.19,0,0,1-5,.17,36.48,36.48,0,0,1-5-.17,34.92,34.92,0,0,1,5-.18A34.7,34.7,0,0,1,219.92,282.36Z"/><path class="cls-3" d="M101.37,299.65a5.75,5.75,0,0,1-1-.2c-.65-.15-1.59-.34-2.76-.55s-2.58-.4-4.14-.54a45.52,45.52,0,0,0-10.17.27c-1.55.22-2.94.48-4.1.75s-2.09.52-2.71.68a5.85,5.85,0,0,1-1,.25,5.33,5.33,0,0,1,1-.38c.62-.23,1.55-.51,2.71-.82A42,42,0,0,1,93.52,298c1.57.16,3,.37,4.16.61s2.11.48,2.74.68A6.36,6.36,0,0,1,101.37,299.65Z"/><path class="cls-3" d="M296.54,335.07c0,.09-35.38,2.13-79,4.54s-79.05,4.29-79.05,4.19,35.37-2.13,79-4.54S296.54,335,296.54,335.07Z"/><path class="cls-3" d="M364.57,299.35a7.54,7.54,0,0,1-1.13-.3c-.36-.11-.8-.24-1.32-.36s-1.09-.3-1.75-.44a46.45,46.45,0,0,0-4.63-.83A50.15,50.15,0,0,0,350,297a52.61,52.61,0,0,0-5.75.31c-1.76.22-3.33.48-4.64.78-.68.12-1.24.29-1.76.41s-1,.24-1.32.35a8.65,8.65,0,0,1-1.14.29,6.94,6.94,0,0,1,1.1-.42c.35-.13.79-.27,1.31-.41s1.1-.33,1.75-.47a43.36,43.36,0,0,1,4.66-.85,43.18,43.18,0,0,1,11.58.08,43.21,43.21,0,0,1,4.64.91c.68.15,1.23.34,1.75.49s.95.29,1.3.42A8.51,8.51,0,0,1,364.57,299.35Z"/><path class="cls-3" d="M315.4,287.87c0,.05-.51.13-1.28.38a9,9,0,0,0-4.86,3.84c-.21.4-.43.78-.68,1.16A3.29,3.29,0,0,1,309,292a7.89,7.89,0,0,1,5-4A3.23,3.23,0,0,1,315.4,287.87Z"/><path class="cls-3" d="M343.09,281.4a11.25,11.25,0,0,1-2.07.38c-1.3.16-3.09.34-5.08.43s-3.79.07-5.09,0a10.52,10.52,0,0,1-2.1-.19,14.74,14.74,0,0,1,2.1-.06c1.3,0,3.1,0,5.08-.12s3.77-.22,5.06-.33A13.44,13.44,0,0,1,343.09,281.4Z"/><path class="cls-3" d="M268.67,287.35c0,.09-6.65,1.14-14.91,2.33s-14.92,2.08-15,2,6.67-1.15,14.92-2.33S268.66,287.25,268.67,287.35Z"/><path class="cls-3" d="M261.87,272.54c0,.09-3.14,1.55-7.1,3.27s-7.2,3-7.24,2.94,3.14-1.55,7.1-3.27S261.83,272.45,261.87,272.54Z"/><path class="cls-3" d="M258.09,270.68a6.41,6.41,0,0,1-.91.54c-.6.32-1.46.79-2.55,1.35-2.16,1.1-5.19,2.56-8.59,4.07s-6.51,2.71-8.81,3.58c-1.14.42-2.07.75-2.72,1a6.56,6.56,0,0,1-1,.3,4.94,4.94,0,0,1,1-.43l2.66-1.07c2.26-.91,5.36-2.18,8.75-3.67s6.43-2.9,8.62-3.95l2.6-1.23A6.33,6.33,0,0,1,258.09,270.68Z"/><path class="cls-10" d="M377.83,330.08a25.23,25.23,0,0,0-4.42-8,3.89,3.89,0,0,1,1,.94,16,16,0,0,1,1.89,2.71,15.35,15.35,0,0,1,1.27,3.05A4.09,4.09,0,0,1,377.83,330.08Z"/><path class="cls-10" d="M377.46,337.46a17.27,17.27,0,0,1-.22-1.76,21.53,21.53,0,0,0-.92-4.12,22.73,22.73,0,0,0-1.75-3.86,15.56,15.56,0,0,1-.9-1.52,6,6,0,0,1,1.11,1.4,17.17,17.17,0,0,1,2.72,8.08A6.25,6.25,0,0,1,377.46,337.46Z"/><path class="cls-10" d="M326.28,352.64a5.74,5.74,0,0,1-1.07-1.29,19.36,19.36,0,0,1-3-7.46,5.92,5.92,0,0,1-.16-1.68,44,44,0,0,0,1.61,5.43A42.78,42.78,0,0,0,326.28,352.64Z"/><path class="cls-10" d="M327.32,358.19a3.29,3.29,0,0,1-.46-.37,15.2,15.2,0,0,1-1.11-1.13,26.75,26.75,0,0,1-3.12-4.22,27.1,27.1,0,0,1-2.24-4.75c-.22-.63-.38-1.15-.47-1.52a1.62,1.62,0,0,1-.11-.58c.05,0,.31.78.81,2a34.22,34.22,0,0,0,2.31,4.66,34.65,34.65,0,0,0,3,4.24C326.43,357.08,326.88,357.63,327.32,358.19Z"/><path class="cls-10" d="M67.42,356.51a5.49,5.49,0,0,1-1.08-1,29.79,29.79,0,0,1-2.24-2.77,27.88,27.88,0,0,1-1.89-3,5.35,5.35,0,0,1-.61-1.36c.09-.05,1.18,1.92,2.79,4.17S67.49,356.44,67.42,356.51Z"/><path class="cls-10" d="M68.37,360.37a16.9,16.9,0,0,1-3.14-2.71,16.66,16.66,0,0,1-2.64-3.22c.08-.06,1.3,1.35,2.89,3A37.68,37.68,0,0,1,68.37,360.37Z"/><path class="cls-10" d="M114.83,335c-.1,0-.34-1.75-1.11-3.79s-1.73-3.53-1.63-3.59A12.72,12.72,0,0,1,114.8,335Z"/><path class="cls-10" d="M116.53,335.64a32.45,32.45,0,0,0-1.35-5,33.47,33.47,0,0,0-2.46-4.52,5,5,0,0,1,1,1.15,15.92,15.92,0,0,1,1.79,3.23,15.64,15.64,0,0,1,1,3.56A4.69,4.69,0,0,1,116.53,335.64Z"/><path class="cls-10" d="M61.53,364.76a4.39,4.39,0,0,1-1.06-.87,22.35,22.35,0,0,1-2.19-2.47,23.09,23.09,0,0,1-1.79-2.78,4.58,4.58,0,0,1-.56-1.26c.1-.05,1.09,1.78,2.63,3.82S61.61,364.69,61.53,364.76Z"/><path class="cls-10" d="M63.3,368.87a2.27,2.27,0,0,1-.55-.25c-.35-.18-.83-.47-1.41-.85A25.1,25.1,0,0,1,53.81,360a15.16,15.16,0,0,1-.8-1.45,1.86,1.86,0,0,1-.24-.56c.06,0,.48.73,1.25,1.87a30.63,30.63,0,0,0,7.46,7.73A16,16,0,0,1,63.3,368.87Z"/><path class="cls-6" d="M468.55,315.34c0,.09-9.54.17-21.3.17s-21.3-.08-21.3-.17,9.54-.18,21.3-.18S468.55,315.24,468.55,315.34Z"/><path class="cls-6" d="M468.87,311.69c0,.1-6.78.18-15.12.18s-15.13-.08-15.13-.18,6.78-.18,15.13-.18S468.87,311.59,468.87,311.69Z"/></g></svg>