<svg id="Layer_1" data-name="Layer 1" xmlns="http://www.w3.org/2000/svg" viewBox="0 0 500 500"><defs><style>.cls-1,.cls-5,.cls-9{fill:#fff;}.cls-1,.cls-2,.cls-3,.cls-4,.cls-7{stroke:#1c191b;}.cls-1,.cls-2,.cls-3,.cls-4,.cls-6,.cls-7,.cls-9{stroke-miterlimit:10;stroke-width:2.17px;}.cls-2,.cls-6{fill:none;}.cls-3{fill:#a0a0a0;}.cls-11,.cls-4{fill:#ea6409;}.cls-6,.cls-9{stroke:#000;}.cls-7{fill:#2b2b2b;}.cls-8{fill:#1c191b;}.cls-10{fill:#ffaddb;}.cls-12{fill:#020202;}.cls-13{fill:#0c0c0c;}.cls-14{fill:#fffdfd;}</style></defs><path class="cls-1" d="M399.62,251.91c-5.35-16.12,6.13-31.27,22.15-34.58,11-2.27,22.83,2,29.13,11.41,8.28,12.4,3.09,26.82-4.41,38.13-3.88,5.84,5.53,11.29,9.38,5.48,9.46-14.26,14.44-32.45,5.05-48.11-7.35-12.25-21.53-19.17-35.67-18.3-24.2,1.49-44.13,24.7-36.11,48.86,2.19,6.6,12.69,3.77,10.48-2.89Z"/><circle class="cls-1" cx="429.56" cy="306.39" r="41.52" transform="translate(-85.12 190.22) rotate(-22.78)"/><path class="cls-2" d="M460.13,301.57s-9.19-14.14-22.85,2.86,2.1,38.27,9.18,39.89"/><path class="cls-3" d="M455.73,333.24c-21.67-18.13-80.4-9.74-106.47,0S299.7,359.8,238.45,350.63c-30.29-4.54-80.79-6.89-101.83-12.86s-49-16-60.31-2.83,1.78,79.78,130,98.63l8.4-19.2c28.49,9.55,67.67,12.44,80.07,10.71l2.69-2.23c1.87,4.69,4.49,9.18,8.15,12,0,0,96.16-20.73,126.29-40.67S476.71,350.78,455.73,333.24Z"/><path class="cls-1" d="M213.86,406.17s39.53,21.25,70.77,12.74,30.59.4,28.44,10.13S296.23,451.22,280,453.1s-54.21-10.61-77.23-24.35Z"/><path class="cls-4" d="M292.84,432.67a25.57,25.57,0,0,1,.15-15.79c22.74-4.71,22,3.39,20.08,12.16-1.14,5.18-5.85,11.1-12.43,15.81A25.91,25.91,0,0,1,292.84,432.67Z"/><path class="cls-4" d="M227.06,412.07c-2.75,9.53-8.53,18.53-11.93,23.28-4.41-2.13-8.59-4.35-12.37-6.6l11.1-22.58A131.85,131.85,0,0,0,227.06,412.07Z"/><path class="cls-2" d="M295.6,438.86s-15.74,10.29-41.91,3.12S219,429.55,219,429.55"/><path class="cls-2" d="M291.34,427.48s-23.83,11.65-67.64-6.63"/><path class="cls-5" d="M183.41,425.18s10.39-17.4,12.25-22.61,3.64-13.23,5.92-11.76l18.27,11.76-13.56,31-25.1-3.39Z"/><path class="cls-2" d="M181.19,429s16.46-27.42,18.77-39.21"/><path class="cls-2" d="M238.45,350.63c-30.29-4.54-80.79-6.89-101.83-12.86s-49-16-60.31-2.83,1.78,79.78,130,98.63l13.56-31S164.26,367,148.87,356"/><path class="cls-1" d="M296.88,408.12s-41.22,17.72-71.61,6.52-30.5-2.27-29.21,7.62,14.84,23.55,30.86,26.85,54.93-5.85,79.05-17.53Z"/><path class="cls-4" d="M215.9,427.63a25.6,25.6,0,0,0,1.23-15.73c-22.25-6.68-22.24,1.45-21.07,10.36.69,5.25,4.86,11.57,11,16.83A25.87,25.87,0,0,0,215.9,427.63Z"/><path class="cls-4" d="M283.22,412.85c1.91,9.73,6.88,19.2,9.85,24.23,4.59-1.74,8.95-3.58,12.9-5.5l-9.09-23.46A132,132,0,0,1,283.22,412.85Z"/><path class="cls-2" d="M212.61,433.57s14.78,11.62,41.48,6.75S289.75,431,289.75,431"/><path class="cls-2" d="M217.84,422.6s22.72,13.68,68-.71"/><path class="cls-5" d="M296.19,419.34l-2.7-11.67s-.61-3.55.48-4.06l10.79-5.17s1.4-.9,2.53,2.89,5.63,17.81,7.72,22.06,4.47,8.26,3.31,8.54-12.06,3.76-13.73,2.05S297.62,424.91,296.19,419.34Z"/><path class="cls-2" d="M306.27,397.7s7.28,27.19,13.51,33.88"/><path class="cls-2" d="M381,353.47s-42.16,25.44-53.45,32.67S293,404,293,404s1.89,22.62,12.57,30.78c0,0,96.16-20.73,126.29-40.67s44.82-43.37,23.84-60.91c-21.67-18.13-80.4-9.74-106.47,0S299.7,359.8,238.45,350.63"/><path class="cls-1" d="M88,328.39l-.61-.58c0-.33-.55-.82-1.94-1.45-8.37-3.78-13.53-16.47-16.36-20.83s-5.42-9.89-7.42-7.42,3.89,15.14,4.18,15.73a90.48,90.48,0,0,1-9.32-20.2c-1.94-5.17-4-15.76-6.92-14.79s.53,18.64.53,18.64c-1.11-5.17-4.9-20.05-8-17.67s2.71,20.87,2.71,20.87c-3.86-9.39-6.63-20.2-9-17.82s3.18,21,3.18,21c-3.21-6.88-6-20.83-8.82-19.55S28.36,303,40.82,324.6s42.49,25.66,42.49,25.66C96.15,353.59,110.78,333.37,88,328.39Z"/><path class="cls-6" d="M374.77,31s-34.29,32.22-7.9,35.9,81.5-9.29,63.13,31.82"/><path class="cls-1" d="M378.15,121.83s4.4-30,26.07-42.24,39.11-13,40.36-10.21S431.86,74.88,425,78c0,0,18.69-5.34,21.05-3s-8.48,5-17.91,8.8c0,0,18.53-5.66,20.89-2.52s-12.56,6.8-17.75,7.86c0,0,17.71-3.34,18.65-.36s-10.79,3.18-16,5.07S405.16,103.93,400,126.7,374.7,134.64,378.15,121.83Z"/><path class="cls-7" d="M206.29,307.38s4.14,32.51-30.73,51.36-63.39,11.76-82.44,3.77C68.77,352.29,79.53,329.72,85,326.7c9.58-5.34,25.13,1.78,40.2-3.82s37.69-27.27,42.41-52.24,16-57.16,50.88-68.16,55.43-2,82.36-10,49.56-13.31,59.45-38,13-35,19.95-37.14,22.5,2,22.45,15.29-1.18,62-20.26,86c-15.25,19.21-40,36.71-67.12,42S206.43,299,206.29,307.38Z"/><path class="cls-1" d="M95.53,340.61a36.07,36.07,0,0,0-.63-16c-3.73.05-7.11.53-10,2.11-4.84,2.7-13.91,21,1.52,32.13A34.47,34.47,0,0,0,95.53,340.61Z"/><path class="cls-1" d="M380.2,117.3c-3.09,1-5.42,3.56-7.94,8.33a43.87,43.87,0,0,0,13.9,6.62,43,43,0,0,0,16.48,1.5c0-.41,0-.8,0-1.16C402.7,119.35,387.1,115.16,380.2,117.3Z"/><path class="cls-7" d="M202.67,281s2.58,57.66,4.46,67,38.29,22.53,81.33,15.46,37.76-27.86,37.87-48.09-8.48-80.53-8.48-80.53"/><path class="cls-1" d="M206.29,341.36s53.4,27.67,119.58-5A25.64,25.64,0,0,1,310.28,357c-14.73,6.35-44,9.23-61.45,7.65s-35.11-9.17-38.7-12.38S206.29,341.36,206.29,341.36Z"/><path class="cls-8" d="M263.67,366.57c-32.27,0-56-10.41-57.6-18.36-1.88-9.31-4.38-64.8-4.49-67.16l2.17-.1c0,.58,2.6,57.68,4.45,66.83,1.61,8,37,21.68,80.09,14.6,37.78-6.21,37.42-23.05,37-40.88,0-2-.09-4.1-.08-6.14.1-19.92-8.38-79.77-8.47-80.38l2.15-.3c.09.6,8.6,60.61,8.49,80.69,0,2,0,4.06.08,6.08.39,18,.79,36.56-38.85,43.07A154.2,154.2,0,0,1,263.67,366.57Z"/><path class="cls-2" d="M206.29,341.36s53.4,27.67,119.58-5"/><path class="cls-1" d="M221.78,279.3s-20.42-26.21-15.95-32,17.26,8.19,17.26,8.19,12-15.47,19.27-13.38S231.63,271.63,221.78,279.3Z"/><path class="cls-2" d="M84.79,314.71s17.12-3,21.13-14.17-1.65-24,12.8-28.07,11.93-16.68,2.51-23.9-1.89-16.65,4.08-17"/><circle class="cls-4" cx="74.31" cy="287.87" r="34.05"/><path class="cls-4" d="M71.6,253.93S63.91,266,71.6,268s21.05-4.87,18.85,14.61.15,27.79,12.72,22.61"/><path class="cls-4" d="M55.87,259.24s-12.07,16.91-4.37,25S69.79,280.37,70,294s-1.86,25.19,13.68,26.65"/><path class="cls-4" d="M40.45,284.26s-1.16,11,9.32,11.73c18.91,1.36,12.16,18.36,13.07,23.95"/><path class="cls-4" d="M101.69,267.68a34.32,34.32,0,0,0-8.64-8.23c4.38,18.07-9.33,37.12-30.86,42.7A46.8,46.8,0,0,1,44,303.23a32.63,32.63,0,0,0,2.58,4.28,46,46,0,0,0,23.74,0C90.67,302.24,104.06,284.86,101.69,267.68Z"/><path class="cls-1" d="M376.41,322.8s-4.35,26.43,3,50.22c0,0,2.93,10.13,6.7,9.66s0-7.77,0-7.77,2.83,9.69,5.42,7.79,0-8.73,0-8.73,3.53,8.24,5.42,7.3-1-3.3-3.44-17-2.69-37-2.22-40.28S377,318.32,376.41,322.8Z"/><path class="cls-1" d="M409.54,326.85s-1.17,15.55,1.63,20,4.42-7.07,4.42-7.07,0,8.19,2.86,8.1,2.86-8.34,2.86-8.34-.28,7.31,2.78,7.07,1-21.26-2.78-26.3S409.75,322.14,409.54,326.85Z"/><path class="cls-9" d="M380.2,277.23S368,256.69,362,257.63s-9.37,34.74-6.13,33.05S380.2,277.23,380.2,277.23Z"/><path class="cls-9" d="M413.15,278.61s13.83-19.45,19.79-18,6.44,35.41,3.35,33.45S413.15,278.61,413.15,278.61Z"/><ellipse class="cls-9" cx="396" cy="298.67" rx="34.19" ry="44.91" transform="translate(81.01 681.82) rotate(-87.6)"/><path d="M421.3,304.55a2.86,2.86,0,1,1-2.73-3A2.85,2.85,0,0,1,421.3,304.55Z"/><path d="M407.34,310.22a1.07,1.07,0,1,1-1-1.11A1.08,1.08,0,0,1,407.34,310.22Z"/><path d="M407.34,314.26a1.06,1.06,0,0,1-1.1,1,1.06,1.06,0,1,1,.09-2.12A1.05,1.05,0,0,1,407.34,314.26Z"/><path d="M410.6,312a1.07,1.07,0,0,1-1.11,1,1.06,1.06,0,1,1,1.11-1Z"/><path d="M378.75,310a1.06,1.06,0,1,0,1.11-1A1.06,1.06,0,0,0,378.75,310Z"/><path d="M378.4,314a1.06,1.06,0,0,0,1,1.1,1,1,0,0,0,1.1-1,1.06,1.06,0,1,0-2.12-.09Z"/><path d="M375.35,311.51a1.06,1.06,0,1,0,1.1-1A1.06,1.06,0,0,0,375.35,311.51Z"/><path d="M368.31,303a2.86,2.86,0,1,1-2.73-3A2.86,2.86,0,0,1,368.31,303Z"/><path d="M388.31,317.3c-.85,3.49-.6,11.25,4.53,11.47s6-7.51,5.48-11.06c-.14-.87-1.48-.56-1.34.31.39,2.55,0,9.55-4.08,9.38s-3.89-7.16-3.28-9.68c.2-.86-1.1-1.28-1.31-.42Z"/><path class="cls-10" d="M397.89,307.94c-.07,1.62-2,2.86-4.25,2.77s-4.07-1.49-4-3.11,2-2.86,4.25-2.77S398,306.32,397.89,307.94Z"/><path class="cls-10" d="M393,309.35q-.13,3.24-.28,6.49a.69.69,0,0,0,1.38.05l.27-6.48a.69.69,0,0,0-1.37-.06Z"/><path class="cls-2" d="M376.41,258.88s8.44,24.81,18,27-1.18-17.59-1.18-17.59,11.29,17.59,16.34,14.45-3.26-12.25-3.26-12.25"/><path class="cls-6" d="M430,98.72c-18.37,41.11,16.61,40.4,29.84,50.29,18.37,13.75,18.26,54.9-34.06,80.81s-69.75-4.24-122,21.67-41,80.68-33,104.18,41.93,41.4,74,37.16,26.86-48.41,1.89-37.16-40.58,68.73-9,89,95.58,11.81,58.45-46.95"/><path class="cls-11" d="M398.6,393c-.66,1.63.21,2.63,1.92,2.2l22.9-5.65a1.8,1.8,0,0,0,1-3.19l-13.76-15.82c-1.16-1.33-2.64-1.07-3.3.56Z"/><path class="cls-2" d="M398.6,393c-.66,1.63.21,2.63,1.92,2.2l22.9-5.65a1.8,1.8,0,0,0,1-3.19l-13.76-15.82c-1.16-1.33-2.64-1.07-3.3.56Z"/><path class="cls-11" d="M390.55,400.12c1.68-.54,2.61.39,2.07,2.07l-7.24,22.46c-.54,1.67-2,2-3.24.78L367.31,410.6c-1.25-1.24-.89-2.7.78-3.24Z"/><path class="cls-2" d="M390.55,400.12c1.68-.54,2.61.39,2.07,2.07l-7.24,22.46c-.54,1.67-2,2-3.24.78L367.31,410.6c-1.25-1.24-.89-2.7.78-3.24Z"/><circle class="cls-4" cx="394.77" cy="397.7" r="4.87"/><path class="cls-1" d="M274.56,200.24c0,5.69-7.93,10.31-17.72,10.31s-17.71-4.62-17.71-10.31,7.93-10.32,17.71-10.32S274.56,194.54,274.56,200.24Z"/><path class="cls-9" d="M223.86,150.86A13.16,13.16,0,1,0,237,137.81,13.1,13.1,0,0,0,223.86,150.86Z"/><path class="cls-9" d="M278.62,112.71H263.05c-10.35,0-18.82,9.64-18.82,21.43v24.14c0,.68,0,1.35.09,2a10,10,0,0,0-.26,2.21v30.21a9.72,9.72,0,0,0,9.69,9.69h6.18a9.72,9.72,0,0,0,9.69-9.69v-13h9c10.35,0,18.82-9.64,18.82-21.42V134.14C297.44,122.35,289,112.71,278.62,112.71Z"/><path class="cls-8" d="M242.92,145s15.26-5.07,19.89-14.92,3.48-12,3.48-12,8.6,11.78,22.2,14.67c11.23,2.39,10.77.74,11.88-1.88,1-2.39,1.7-19-15.35-29.25s-35.37-9.23-48,3.52S225.92,138,230.17,143,240,150.84,242.92,145Z"/><path class="cls-8" d="M254.09,91.51A25.71,25.71,0,1,1,228.38,65.8,25.71,25.71,0,0,1,254.09,91.51Z"/><circle class="cls-8" cx="199.22" cy="62.87" r="17.91" transform="translate(107.65 250.64) rotate(-81.52)"/><path class="cls-5" d="M224.62,150.86A12.4,12.4,0,1,0,237,138.57,12.35,12.35,0,0,0,224.62,150.86Z"/><path class="cls-12" d="M245.21,152.49a9.64,9.64,0,0,0-.4-3.25,7.57,7.57,0,0,0-3.95-4.93,9.73,9.73,0,0,0-5.17-.74,1.5,1.5,0,1,0,0,3,11.07,11.07,0,0,1,2.23,0l.22,0c-.43,0-.16,0,0,0l.42.08a7.46,7.46,0,0,1,.84.26c.37.13-.29-.15.06,0l.33.17c.21.11.42.32.64.41-.27-.1-.25-.2-.12-.09l.13.11.24.22c.16.16.29.36.46.51-.35-.32-.1-.13,0,0l.17.25a6.55,6.55,0,0,1,.32.58,2.55,2.55,0,0,1,.13.29c.09.16-.15-.4-.07-.18a.78.78,0,0,1,.05.14q.12.3.21.6a8.91,8.91,0,0,1,.24,1,1.7,1.7,0,0,1,0,.22c0,.32-.05-.44,0-.13,0,.15,0,.29,0,.44a5.33,5.33,0,0,1,0,1,1.51,1.51,0,0,0,1.5,1.49,1.53,1.53,0,0,0,1.49-1.49Z"/><path class="cls-13" d="M266.29,142a3.51,3.51,0,1,0,3.51-3.51A3.51,3.51,0,0,0,266.29,142Z"/><path class="cls-13" d="M289.26,141.51a3,3,0,1,0,3-3A3,3,0,0,0,289.26,141.51Z"/><path class="cls-14" d="M285.91,155.87s-1.76,5.14-5.49,5.49-6.65-3.78-6.85-7Z"/><path class="cls-13" d="M284.74,155.55c0,.13-.1.25-.14.38.14-.37-.05.09-.1.21l-.3.6a8.05,8.05,0,0,1-1.8,2.41,3.53,3.53,0,0,1-2.95,1,5.14,5.14,0,0,1-3-1.92,7.36,7.36,0,0,1-1.64-3.86l-1.21,1.21,10.81,1.33,1.53.18a1.22,1.22,0,0,0,1.22-1.21,1.24,1.24,0,0,0-1.22-1.21l-10.81-1.33-1.53-.18a1.22,1.22,0,0,0-1.22,1.21c.26,3.38,2.52,6.92,5.86,8s6.1-1.06,7.73-3.74a12.88,12.88,0,0,0,1.14-2.4,1.22,1.22,0,0,0-.85-1.49A1.25,1.25,0,0,0,284.74,155.55Z"/><path class="cls-11" d="M254.09,154.93a8.73,8.73,0,1,0,8.72-8.72A8.72,8.72,0,0,0,254.09,154.93Z"/><path class="cls-11" d="M295.1,149a6.43,6.43,0,0,1,1.54.19v9a19,19,0,0,1-.32,3.94,8,8,0,0,1-1.22.11,6.64,6.64,0,0,1,0-13.28Z"/><polygon class="cls-11" points="281.97 138.52 281.25 150.47 286.96 146.99 281.97 138.52"/></svg>